<?xml version="1.0" encoding="utf-8"?><svg viewBox="0 0 93 32" xmlns="http://www.w3.org/2000/svg" xmlns:xlink="http://www.w3.org/1999/xlink"><style>:root>svg{display:none}:root>svg:target{display:block}</style><svg viewBox="0 0 66 16" id="badge-green" xmlns="http://www.w3.org/2000/svg"><rect width="66" height="16" rx="6"/><path d="M12.748 12h-1.509V8.919H8.412V12H6.898V4.861h1.514V7.66h2.827V4.861h1.509V12zm8.586-3.58c0 1.183-.293 2.09-.879 2.726-.586.634-1.425.952-2.52.952-1.093 0-1.933-.318-2.519-.953-.586-.634-.879-1.546-.879-2.734s.293-2.095.88-2.72c.588-.628 1.432-.942 2.528-.942 1.098 0 1.936.316 2.515.947.583.632.874 1.54.874 2.725zm-5.21 0c0 .798.152 1.399.454 1.803.303.403.756.605 1.358.605 1.207 0 1.811-.802 1.811-2.407 0-1.608-.6-2.412-1.802-2.412-.602 0-1.056.203-1.362.61-.306.404-.459 1.004-.459 1.802zm6.99-3.559h2.221c1.013 0 1.747.145 2.203.435.459.286.688.744.688 1.372 0 .426-.1.776-.303 1.05a1.19 1.19 0 01-.796.493v.049c.453.1.778.29.977.566.202.277.303.645.303 1.104 0 .65-.236 1.159-.708 1.523-.47.365-1.107.547-1.914.547h-2.671V4.861zm1.513 2.827h.88c.41 0 .706-.063.888-.19.186-.127.278-.337.278-.63 0-.273-.1-.469-.302-.586-.2-.12-.515-.18-.948-.18h-.796v1.586zm0 1.202v1.86h.987c.416 0 .724-.08.922-.24.2-.159.298-.403.298-.732 0-.592-.423-.888-1.27-.888h-.937zm5.505-4.029h1.363V8.31l-.02.922-.049 1.05h.03l3.296-5.42h1.811V12h-1.348V8.572c0-.459.03-1.14.088-2.04h-.039L31.954 12h-1.822V4.861zM44.514 12h-1.508V8.919h-2.828V12h-1.513V4.861h1.514V7.66h2.827V4.861h1.508V12zm7.927 0h-1.718l-2.588-3.618V12H46.62V4.861h1.514v3.457l2.558-3.457h1.612L49.702 8.29 52.442 12zm5.569 0l-.518-1.7H54.89l-.518 1.7h-1.63l2.519-7.168h1.85L59.642 12H58.01zm-.879-2.969c-.478-1.54-.749-2.41-.81-2.612a8.17 8.17 0 01-.127-.479c-.108.417-.416 1.447-.923 3.091h1.86z"/></svg><svg viewBox="0 0 32 29" id="badge-heart" xmlns="http://www.w3.org/2000/svg"><path d="M29.665 2.777C28.087.987 25.897 0 23.5 0c-3.372 0-5.506 2.014-6.703 3.703-.311.438-.575.878-.797 1.292a12.245 12.245 0 00-.797-1.292C14.006 2.013 11.872 0 8.5 0 6.103 0 3.913.986 2.335 2.777.829 4.486 0 6.774 0 9.22c0 2.662 1.04 5.139 3.272 7.793 1.994 2.373 4.864 4.818 8.187 7.65a385.452 385.452 0 013.883 3.34l.04.035a.935.935 0 001.236 0l.04-.035c1.364-1.193 2.644-2.284 3.883-3.34 3.323-2.832 6.193-5.277 8.187-7.65C30.96 14.36 32 11.883 32 9.22c0-2.446-.83-4.734-2.335-6.443zm-10.34 20.46c-1.068.909-2.167 1.845-3.325 2.852-1.158-1.007-2.257-1.943-3.325-2.853-6.503-5.542-10.8-9.203-10.8-14.016 0-1.99.663-3.837 1.866-5.203A6.258 6.258 0 018.5 1.875c2.57 0 4.232 1.584 5.174 2.912a11.113 11.113 0 011.435 2.854.937.937 0 001.782 0c.15-.461.591-1.662 1.436-2.854.94-1.328 2.602-2.912 5.173-2.912 1.851 0 3.541.76 4.759 2.142 1.203 1.366 1.866 3.213 1.866 5.203 0 4.813-4.297 8.474-10.8 14.016z"/></svg><svg viewBox="0 0 34 16" id="badge-orange" xmlns="http://www.w3.org/2000/svg"><rect width="34" height="16" rx="6"/><path d="M12.67 12H10.94l-1.66-2.7-1.66 2.7H6l2.368-3.682-2.217-3.457h1.67L9.36 7.43l1.51-2.569h1.63l-2.241 3.54L12.67 12zm1.198-7.139h1.363V8.31l-.02.922-.049 1.05h.03l3.296-5.42h1.811V12h-1.348V8.572c0-.459.03-1.14.088-2.04H19L15.69 12h-1.822V4.861zM25.155 12H23.64V6.121h-1.938v-1.26h5.39v1.26h-1.938V12z"/></svg><svg viewBox="0 0 37 16" id="badge-red" xmlns="http://www.w3.org/2000/svg"><rect width="37" height="16" rx="6"/><path d="M6.298 9.93V8.709H8.92v1.22H6.298zm6.223-2.49c.69 0 1.238.193 1.645.58.41.388.615.918.615 1.592 0 .798-.245 1.411-.737 1.841-.491.43-1.194.645-2.11.645-.793 0-1.435-.129-1.923-.386v-1.304c.257.137.557.25.898.337.342.085.666.127.972.127.921 0 1.382-.377 1.382-1.133 0-.72-.477-1.079-1.43-1.079-.173 0-.364.018-.572.054a3.943 3.943 0 00-.508.107l-.6-.322.268-3.638h3.872v1.28h-2.549l-.131 1.401.17-.034c.199-.046.445-.069.738-.069zm8.366.99c0 1.247-.205 2.17-.615 2.77-.407.598-1.035.898-1.885.898-.823 0-1.445-.31-1.865-.928-.417-.619-.625-1.532-.625-2.74 0-1.26.203-2.187.61-2.783.407-.599 1.034-.898 1.88-.898.824 0 1.445.313 1.865.938.424.625.635 1.54.635 2.744zm-3.491 0c0 .876.075 1.505.224 1.885.153.378.409.567.767.567.352 0 .606-.192.762-.576.156-.384.234-1.01.234-1.875 0-.876-.08-1.504-.24-1.885-.155-.384-.408-.576-.756-.576-.355 0-.609.192-.762.576-.153.38-.23 1.009-.23 1.885zM23.086 7c0 .413.036.723.108.928.075.202.194.302.356.302.313 0 .47-.41.47-1.23 0-.814-.157-1.22-.47-1.22-.162 0-.281.1-.356.302-.072.199-.107.505-.107.918zm2.164-.01c0 .749-.145 1.312-.435 1.69-.29.374-.715.561-1.274.561-.538 0-.953-.192-1.245-.576-.293-.387-.44-.946-.44-1.675 0-1.487.562-2.231 1.685-2.231.55 0 .971.193 1.264.58.297.385.445.935.445 1.651zm3.359-2.129L24.649 12h-1.172l3.96-7.139h1.172zm-.523 4.99c0 .414.036.723.108.928.075.202.194.303.356.303.313 0 .47-.41.47-1.23 0-.814-.157-1.221-.47-1.221-.162 0-.281.1-.356.303-.072.198-.107.504-.107.918zm2.164-.01c0 .746-.145 1.308-.435 1.685-.29.375-.715.562-1.274.562-.538 0-.953-.192-1.245-.576-.293-.388-.44-.944-.44-1.67 0-1.488.562-2.232 1.685-2.232.55 0 .971.194 1.264.581.297.385.445.935.445 1.65z"/></svg><svg viewBox="0 0 33 32" id="facebook" xmlns="http://www.w3.org/2000/svg"><g clip-path="url(#eclip0_20_50)"><path d="M21.65 5.313h2.901V.225C24.051.156 22.33 0 20.325 0c-4.183 0-7.048 2.65-7.048 7.519V12H8.66v5.688h4.616V32h5.659V17.69h4.429L24.068 12h-5.133V8.083c0-1.644.44-2.77 2.715-2.77z"/></g><defs><clipPath id="eclip0_20_50"><path transform="translate(.469)" d="M0 0h31.778v32H0z"/></clipPath></defs></svg><svg viewBox="0 0 8 4" id="icon-arrow" xmlns="http://www.w3.org/2000/svg"><path d="M3.475 3.894L.223.627a.37.37 0 010-.52.363.363 0 01.516 0l2.994 3.008L6.728.108a.364.364 0 01.516 0 .37.37 0 010 .52L3.992 3.893a.367.367 0 01-.517 0z"/></svg><svg viewBox="0 0 20 32" id="icon-arrow-left" xmlns="http://www.w3.org/2000/svg"><path d="M1.038 17.015l16.014 14.593a1.35 1.35 0 001.903 0 1.335 1.335 0 000-1.894L3.907 16 18.953 2.286a1.335 1.335 0 000-1.894 1.35 1.35 0 00-1.903 0L1.037 14.985c-.28.279-.4.648-.382 1.014a1.33 1.33 0 00.383 1.016z"/></svg><svg viewBox="0 0 20 32" id="icon-arrow-right" xmlns="http://www.w3.org/2000/svg"><path d="M18.964 14.985L2.951.392a1.35 1.35 0 00-1.903 0 1.335 1.335 0 000 1.894L16.095 16 1.05 29.714a1.335 1.335 0 000 1.894 1.35 1.35 0 001.903 0l16.013-14.593c.28-.279.4-.648.382-1.014a1.33 1.33 0 00-.383-1.016z"/></svg><svg viewBox="0 0 32 31" id="icon-cart" xmlns="http://www.w3.org/2000/svg"><path d="M31.798 4.039a.923.923 0 00-.721-.347H6.509L5.822.715A.923.923 0 004.923 0h-4a.923.923 0 000 1.846H4.19l4.663 20.208c.097.419.47.715.9.715h18.494a.923.923 0 100-1.846h-17.76l-.71-3.077h18.532c.431 0 .806-.3.9-.72l2.77-12.308a.923.923 0 00-.18-.78zM27.569 16H9.35L6.937 5.538h22.987L27.57 16zM13.538 24a3.388 3.388 0 00-3.384 3.385 3.388 3.388 0 003.384 3.384 3.388 3.388 0 003.385-3.384A3.388 3.388 0 0013.538 24zm0 4.923A1.54 1.54 0 0112 27.385c0-.849.69-1.539 1.538-1.539.849 0 1.539.69 1.539 1.539a1.54 1.54 0 01-1.539 1.538zM24.615 24a3.388 3.388 0 00-3.384 3.385 3.388 3.388 0 003.384 3.384A3.388 3.388 0 0028 27.385 3.388 3.388 0 0024.615 24zm0 4.923a1.54 1.54 0 01-1.538-1.538c0-.849.69-1.539 1.538-1.539.849 0 1.539.69 1.539 1.539a1.54 1.54 0 01-1.539 1.538z"/></svg><svg viewBox="0 0 32 23" id="icon-del" xmlns="http://www.w3.org/2000/svg"><path d="M31.917 14.34l-1.62-2.479a3.866 3.866 0 00-3.25-1.75h-4.19v-2.41a2.671 2.671 0 00-2.669-2.668h-7.841A4.986 4.986 0 007.459.99 4.984 4.984 0 002.48 5.97c0 1.726.884 3.249 2.222 4.142H.508a.508.508 0 100 1.016h5.08v1.016H3.554a.508.508 0 000 1.016h2.032v1.015H.508a.508.508 0 100 1.016h5.08v2.25a2.548 2.548 0 00-1.525 2.328v.502c0 .28.228.508.509.508h4.505a2.811 2.811 0 002.732 2.173c1.33 0 2.445-.93 2.733-2.173h9.773a2.812 2.812 0 002.733 2.173c1.329 0 2.444-.93 2.733-2.173h1.711c.28 0 .508-.227.508-.508v-5.654a.508.508 0 00-.083-.278zM3.497 5.97a3.968 3.968 0 013.962-3.963 3.967 3.967 0 013.963 3.963 3.967 3.967 0 01-3.963 3.963A3.968 3.968 0 013.496 5.97zm3.106 9.221H7.62a.508.508 0 100-1.016H6.603V13.16h3.556a.508.508 0 100-1.016H6.603v-1.016h6.603a.508.508 0 000-1.016h-2.99a4.976 4.976 0 002.218-4.064h7.755c.91 0 1.652.742 1.652 1.653v9.522H6.603v-2.031zm15.238 4.572H14.59a2.797 2.797 0 00-.722-1.524h7.974v1.524zM6.61 18.239h3.142c-.382.413-.642.94-.721 1.524H5.079a1.532 1.532 0 011.53-1.524zm5.2 3.697a1.794 1.794 0 01-1.793-1.792c0-.988.805-1.792 1.792-1.792.989 0 1.793.804 1.793 1.792s-.804 1.792-1.793 1.792zm15.238 0a1.794 1.794 0 01-1.792-1.792c0-.988.804-1.792 1.792-1.792s1.792.804 1.792 1.792-.804 1.792-1.792 1.792zm3.936-2.173h-1.157a2.81 2.81 0 00-2.78-2.427 2.81 2.81 0 00-2.779 2.427h-1.41v-8.635h4.188c.976 0 1.874.482 2.401 1.288l1.537 2.352v4.995z"/><path d="M27.878 20.144a.83.83 0 11-1.661 0 .83.83 0 011.662 0zM12.64 20.144a.83.83 0 11-1.661 0 .83.83 0 011.661 0zM8.127 5.97V3.748a.508.508 0 10-1.016 0v2.056L6.074 7.226a.507.507 0 10.821.598L8.03 6.27a.508.508 0 00.097-.3zM26.876 11.636h-.971a.508.508 0 00-.508.508v3.555c0 .281.227.508.508.508h3.418a.874.874 0 00.764-.44.872.872 0 00.003-.88l-1.187-2.075a2.34 2.34 0 00-2.027-1.176zm-.463 3.556v-2.54h.463c.473 0 .911.254 1.145.664l1.072 1.875h-2.68z"/></svg><svg viewBox="0 0 32 29" id="icon-heart" xmlns="http://www.w3.org/2000/svg"><path d="M29.665 2.777C28.087.987 25.897 0 23.5 0c-3.372 0-5.506 2.014-6.703 3.703-.311.438-.575.878-.797 1.292a12.245 12.245 0 00-.797-1.292C14.006 2.013 11.872 0 8.5 0 6.103 0 3.913.986 2.335 2.777.829 4.486 0 6.774 0 9.22c0 2.662 1.04 5.139 3.272 7.793 1.994 2.373 4.864 4.818 8.187 7.65a385.452 385.452 0 013.883 3.34l.04.035a.935.935 0 001.236 0l.04-.035c1.364-1.193 2.644-2.284 3.883-3.34 3.323-2.832 6.193-5.277 8.187-7.65C30.96 14.36 32 11.883 32 9.22c0-2.446-.83-4.734-2.335-6.443zm-10.34 20.46c-1.068.909-2.167 1.845-3.325 2.852-1.158-1.007-2.257-1.943-3.325-2.853-6.503-5.542-10.8-9.203-10.8-14.016 0-1.99.663-3.837 1.866-5.203A6.258 6.258 0 018.5 1.875c2.57 0 4.232 1.584 5.174 2.912a11.113 11.113 0 011.435 2.854.937.937 0 001.782 0c.15-.461.591-1.662 1.436-2.854.94-1.328 2.602-2.912 5.173-2.912 1.851 0 3.541.76 4.759 2.142 1.203 1.366 1.866 3.213 1.866 5.203 0 4.813-4.297 8.474-10.8 14.016z"/></svg><svg viewBox="0 0 16 2" id="icon-minus" xmlns="http://www.w3.org/2000/svg"><path d="M15.333.333H.667a.667.667 0 100 1.334h14.666a.667.667 0 100-1.334z"/></svg><svg viewBox="0 0 26 17" id="icon-nav" xmlns="http://www.w3.org/2000/svg"><path d="M.917 0h24.896v1H.917zM.917 8h19.917v1H.917zM.917 16h24.896v1H.917z"/></svg><svg viewBox="0 0 16 16" id="icon-plus" xmlns="http://www.w3.org/2000/svg"><path d="M15.2 7.2H8.8V.8a.8.8 0 00-1.6 0v6.4H.8a.8.8 0 000 1.6h6.4v6.4a.8.8 0 001.6 0V8.8h6.4a.8.8 0 000-1.6z"/></svg><svg viewBox="0 0 21 20" id="icon-search" xmlns="http://www.w3.org/2000/svg"><path d="M9.02 16.472C4.477 16.472.78 12.777.78 8.236S4.476 0 9.02 0c4.545 0 8.242 3.695 8.242 8.236s-3.697 8.236-8.242 8.236zm0-14.91c-3.682 0-6.679 2.994-6.679 6.674s2.997 6.675 6.68 6.675 6.68-2.995 6.68-6.675c0-3.68-2.997-6.675-6.68-6.675zm11.53 18.21a.78.78 0 000-1.105l-3.496-3.493a.782.782 0 00-1.105 1.104l3.496 3.493a.779.779 0 001.105 0z"/></svg><svg viewBox="0 0 23 23" id="icon-tel" xmlns="http://www.w3.org/2000/svg"><path d="M21.463 16.589l-3.194-3.196a2.276 2.276 0 00-1.617-.662c-.64 0-1.242.252-1.698.708l-1.244 1.243c-.966-.537-2.25-1.275-3.583-2.609-1.332-1.332-2.07-2.612-2.61-3.583l1.244-1.244c.926-.927.945-2.415.043-3.316L5.61.737A2.266 2.266 0 003.993.072 2.39 2.39 0 002.324.75C2.05.97.674 2.186.161 4.69c-.718 3.507.932 6.882 5.695 11.648 5.322 5.32 9.865 5.733 11.13 5.733.264 0 .423-.017.465-.021 2.482-.291 3.37-1.393 4.02-2.198.84-1.043.837-2.416-.008-3.264zm-1.06 2.403c-.61.756-1.186 1.47-3.111 1.697-.001 0-.107.011-.306.011-1.132 0-5.211-.384-10.16-5.331C2.433 10.974.891 7.96 1.504 4.966c.448-2.185 1.635-3.114 1.682-3.15l.04-.03.036-.036a1.03 1.03 0 01.73-.307c.25 0 .479.093.648.263L7.834 4.9c.368.367.348.985-.043 1.377L6.384 7.683l-.023.024c-.367.404-.324.95-.122 1.306.583 1.052 1.382 2.493 2.918 4.03 1.532 1.531 2.97 2.33 4.02 2.911.104.06.321.158.593.158.32 0 .615-.136.832-.383l1.321-1.32c.197-.198.456-.306.728-.306.25 0 .48.093.649.261l3.192 3.193c.405.407.238 1.03-.09 1.435zM13.388 3.432c1.178.135 2.566.849 3.534 1.818.978.977 1.693 2.379 1.822 3.57a.686.686 0 101.364-.148c-.164-1.506-1.013-3.189-2.216-4.392-1.192-1.192-2.858-2.04-4.347-2.21a.686.686 0 10-.157 1.362zM12.748 6.304c.637.073 1.519.546 2.096 1.123.583.583 1.056 1.473 1.126 2.117a.686.686 0 101.363-.147c-.119-1.1-.849-2.269-1.52-2.94-.664-.664-1.821-1.39-2.909-1.516a.685.685 0 10-.156 1.363z"/></svg><svg viewBox="0 0 25 32" id="icon-user" xmlns="http://www.w3.org/2000/svg"><path d="M22.678 19.943a12.5 12.5 0 00-4.085-3.779 9.242 9.242 0 003.093-6.902C21.686 4.155 17.531 0 12.424 0S3.162 4.155 3.162 9.262a9.242 9.242 0 003.092 6.902 12.5 12.5 0 00-4.085 3.779A12.322 12.322 0 000 26.936V32h24.848v-5.064c0-2.505-.75-4.923-2.17-6.993zM5.101 9.263c0-4.039 3.285-7.324 7.323-7.324s7.323 3.285 7.323 7.323-3.285 7.323-7.323 7.323S5.1 13.3 5.1 9.262zM1.939 30.06v-3.125c0-4.109 2.38-7.794 6.101-9.516a9.205 9.205 0 004.384 1.104c1.585 0 3.078-.4 4.383-1.104 3.721 1.722 6.101 5.407 6.101 9.516v3.125H1.94z"/></svg><svg viewBox="0 0 33 32" id="instagram" xmlns="http://www.w3.org/2000/svg"><g clip-path="url(#rclip0_20_42)"><path d="M16.449 7.784c-4.506 0-8.154 3.677-8.154 8.21 0 4.538 3.652 8.211 8.154 8.211 4.505 0 8.153-3.677 8.153-8.21 0-4.538-3.651-8.211-8.153-8.211zm0 13.54c-2.925 0-5.293-2.385-5.293-5.33 0-2.943 2.369-5.329 5.293-5.329 2.923 0 5.292 2.386 5.292 5.33.001 2.944-2.367 5.329-5.292 5.329z"/><path d="M22.995.101c-2.924-.137-10.165-.13-13.091 0-2.572.122-4.84.747-6.669 2.588C.18 5.767.57 9.913.57 15.995c0 6.224-.344 10.274 2.665 13.305 3.068 3.088 7.246 2.684 13.214 2.684 6.122 0 8.235.004 10.4-.84 2.944-1.15 5.166-3.8 5.383-8.559.138-2.945.13-10.236 0-13.182C31.97 3.785 28.976.379 22.995.1zm4.628 27.163C25.619 29.28 22.84 29.1 16.41 29.1c-6.62 0-9.275.099-11.212-1.857-2.231-2.236-1.827-5.827-1.827-11.27C3.37 8.606 2.62 3.3 9.96 2.922c1.688-.06 2.184-.08 6.43-.08l.06.04c7.056 0 12.592-.744 12.925 6.648.075 1.686.092 2.193.092 6.462 0 6.59.124 9.279-1.845 11.27z"/><path d="M24.925 9.379a1.912 1.912 0 001.906-1.92c0-1.059-.853-1.918-1.905-1.918A1.912 1.912 0 0023.02 7.46c0 1.06.853 1.919 1.905 1.919z"/></g><defs><clipPath id="rclip0_20_42"><path transform="translate(.554)" d="M0 0h31.778v32H0z"/></clipPath></defs></svg><svg viewBox="0 0 49 29" id="mastercard" xmlns="http://www.w3.org/2000/svg"><g clip-path="url(#sclip0_19_94)"><path d="M33.933 0a14.433 14.433 0 00-9.721 3.748A14.442 14.442 0 0014.495.003h-.093C6.444.055 0 6.529 0 14.498c0 8.001 6.494 14.494 14.494 14.494 3.737 0 7.145-1.417 9.716-3.745a14.336 14.336 0 01-1.482-1.584h2.993a14.492 14.492 0 01-1.472 1.553h-.002c-.012.013-.025.021-.037.032a14.44 14.44 0 009.728 3.749c8.005-.003 14.492-6.495 14.49-14.499v-.007C48.429 6.487 41.938-.002 33.933 0zM22.894 5.245h2.755c.406.492.783 1.01 1.125 1.552h-4.915a21.68 21.68 0 011.035-1.552zm-1.891 3.074h6.607c.235.502.443 1.021.625 1.553H20.22c.08-.15.36-.754.783-1.553zM5.917 18.19l.879-5.542-1.983 5.542H3.75l-.138-5.542-.939 5.542H1.184l1.234-7.35H4.67l.079 4.51 1.521-4.51h2.443l-1.217 7.35H5.917zm5.265-.012l.051-.587c-.024.003-.494.709-1.583.709-.57 0-1.49-.311-1.49-1.663 0-1.719 1.402-2.289 2.737-2.289.21 0 .663.038.663.038s.051-.105.051-.389c0-.467-.42-.531-.995-.531-1.013 0-1.682.271-1.682.271l.224-1.33s.812-.34 1.869-.34c.547 0 2.12.058 2.12 1.861l-.606 4.25h-1.359zm5.743-1.872c0 2.051-1.987 1.963-2.334 1.963-1.295 0-1.695-.179-1.732-.189l.206-1.35c.002-.012.65.235 1.371.235.416 0 .956-.041.956-.538 0-.744-1.932-.566-1.932-2.333 0-1.559 1.158-2.015 2.3-2.015.882 0 1.424.121 1.424.121l-.195 1.362s-.837-.069-1.054-.069c-.549 0-.848.12-.848.504-.001.772 1.838.394 1.838 2.309zm2.386.538c.137 0 .292-.047.398-.047l-.193 1.311c-.155.043-.594.199-1.157.203-.719.006-1.23-.396-1.23-1.308 0-.612.877-5.655.911-5.688h1.543l-.157.902h.77l-.197 1.453h-.817l-.434 2.677c-.033.213.026.497.563.497zm3.394-4.797c1.694 0 2.201 1.24 2.201 2.257 0 .407-.204 1.407-.204 1.407h-3.136s-.29 1.235 1.367 1.235c.777 0 1.639-.38 1.639-.38l-.272 1.487s-.498.254-1.63.254c-1.227 0-2.666-.519-2.666-2.699.001-1.889 1.149-3.561 2.701-3.561zm4.087 10.123H21.65c-.313-.5-.605-1.013-.856-1.552h6.843a14.886 14.886 0 01-.845 1.552zm-.345-3.969h-1.584l.963-5.982h1.437l-.138.867s.512-.943 1.203-.943c.201 0 .298.02.298.02-.205.418-.386.801-.574 1.79-1.072-.38-1.154 1.693-1.605 4.248zm6.035-.093s-.83.212-1.35.212c-1.842 0-2.777-1.271-2.777-3.196 0-2.903 1.733-4.449 3.514-4.449.805 0 1.738.378 1.738.378l-.252 1.635s-.631-.441-1.416-.441c-1.05 0-1.992 1.002-1.992 2.823 0 .897.439 1.733 1.535 1.733.521 0 1.276-.379 1.276-.379l-.276 1.684zm3.715.073l.052-.591c-.025.003-.495.709-1.583.709-.57 0-1.49-.311-1.49-1.663 0-1.719 1.402-2.289 2.736-2.289.21 0 .664.038.664.038s.052-.104.052-.388c0-.467-.42-.531-.996-.531-1.013 0-1.681.271-1.681.271l.224-1.33s.812-.34 1.87-.34c.546 0 2.12.058 2.119 1.861l-.606 4.25c-.001.003-1.361.003-1.361.003zm3.207.02H37.82l.963-5.982h1.438l-.138.867s.513-.943 1.204-.943c.201 0 .297.02.297.02-.204.418-.387.801-.574 1.79-1.073-.38-1.155 1.693-1.606 4.248zm4.729-.016l.067-.551s-.512.646-1.438.646c-1.283 0-1.912-1.239-1.912-2.505 0-1.958 1.178-3.665 2.592-3.665.91.002 1.491.805 1.491.805l.334-2.065 1.547-.003-1.18 7.338h-1.501zm3.052-.207a.461.461 0 01-.406.237.471.471 0 01-.404-.237.464.464 0 010-.466.475.475 0 01.404-.236c.08 0 .156.021.23.062a.461.461 0 01.176.64zM47.061 22.4c-.01-.006-.019-.017-.035-.023a.245.245 0 00-.08-.01h-.094v.15h.1c.047 0 .078-.003.096-.02a.066.066 0 00.025-.055.075.075 0 00-.012-.041z"/><path d="M11.022 15.495c-1.13 0-1.36.508-1.36.93 0 .219.125.583.604.583.93 0 1.122-1.218 1.092-1.477-.044-.01-.072-.035-.336-.036zM22.711 13.428c-.841 0-1.003.957-1.003 1.058h1.713c0-.077.161-1.058-.71-1.058zM43.709 13.595c-.68 0-1.216.788-1.215 1.985 0 .73.26 1.198.816 1.198.836 0 1.239-1.091 1.239-1.904 0-.897-.285-1.279-.84-1.279zM47.115 17.552a.377.377 0 00-.146-.145.381.381 0 00-.528.145.403.403 0 00-.053.195c0 .067.018.133.05.194a.409.409 0 00.34.2c.067 0 .133-.02.193-.054a.388.388 0 00.144-.535zm-.217.452l-.045-.078a.404.404 0 00-.084-.118.102.102 0 00-.066-.019h-.046v.214h-.084v-.504h.175c.059 0 .103.005.128.016a.143.143 0 01.064.048.116.116 0 01.023.074.136.136 0 01-.04.096c-.026.029-.062.041-.104.046.02.008.033.017.043.026a.51.51 0 01.074.099l.062.1h-.1zM36.039 15.495c-1.131 0-1.36.508-1.36.93 0 .219.124.583.604.583.929 0 1.121-1.218 1.092-1.477-.045-.01-.073-.035-.336-.036z"/><path d="M46.864 17.602a.091.091 0 00-.034-.025.283.283 0 00-.082-.01h-.091v.153h.099c.047 0 .078-.006.097-.021a.078.078 0 00.024-.056.067.067 0 00-.013-.041z"/></g><defs><clipPath id="sclip0_19_94"><path d="M0 0h49v29H0z"/></clipPath></defs></svg><svg viewBox="0 0 33 32" id="telegram" xmlns="http://www.w3.org/2000/svg"><g clip-path="url(#tclip0_20_46)"><path d="M13.328 20.241l-.526 7.446c.753 0 1.078-.326 1.469-.716l3.526-3.393 7.306 5.387c1.34.753 2.284.357 2.646-1.24l4.796-22.63.001-.002c.425-1.994-.716-2.774-2.022-2.285L2.334 13.676c-1.924.752-1.895 1.832-.327 2.322l7.207 2.257 16.74-10.548c.788-.526 1.505-.235.916.29L13.328 20.241z"/></g><defs><clipPath id="tclip0_20_46"><path transform="translate(.86)" d="M0 0h31.778v32H0z"/></clipPath></defs></svg><svg viewBox="0 0 93 29" id="visa" xmlns="http://www.w3.org/2000/svg"><path d="M37.109.474l-4.71 27.58h7.533L44.646.475h-7.537zM26.083.505l-7.378 18.81-.787-2.84C16.463 13.051 12.332 8.137 7.483 5.04l6.746 23.001 7.971-.013L34.063.499l-7.98.006z"/><path d="M15.058 2.479C14.62.799 13.351.298 11.776.238H.096L0 .787c9.089 2.2 15.103 7.501 17.598 13.875L15.058 2.48zM59.913 5.761c2.465-.038 4.251.5 5.638 1.056l.68.319 1.02-5.978C65.759.6 63.42 0 60.502 0c-7.444 0-12.69 3.741-12.731 9.102-.049 3.961 3.737 6.173 6.597 7.494 2.935 1.353 3.92 2.213 3.906 3.422-.023 1.846-2.34 2.693-4.505 2.693-3.016 0-4.619-.416-7.093-1.444l-.97-.441-1.06 6.173c1.763.771 5.016 1.434 8.393 1.47 7.919 0 13.065-3.697 13.119-9.426.033-3.134-1.976-5.525-6.33-7.487-2.635-1.28-4.247-2.131-4.232-3.422 0-1.147 1.368-2.373 4.317-2.373zM86.583.505h-5.82c-1.808 0-3.153.49-3.947 2.289L65.631 28.07h7.91s1.291-3.399 1.584-4.143c.866 0 8.552.012 9.647.012.224.962.918 4.131.918 4.131h6.988L86.583.505zm-9.29 17.777c.62-1.584 3-7.709 3-7.709-.04.076.615-1.595 1.004-2.633l.508 2.378 1.746 7.964h-6.258z"/></svg><svg viewBox="0 0 32 32" id="youtube" xmlns="http://www.w3.org/2000/svg"><g clip-path="url(#vclip0_20_48)"><path d="M31.24 7.905l.039.262c-.384-1.372-1.42-2.43-2.738-2.816l-.028-.007c-2.478-.677-12.447-.677-12.447-.677s-9.944-.014-12.446.677A4.045 4.045 0 00.862 8.14l-.007.028c-.925 4.868-.932 10.717.041 15.93l-.04-.265c.383 1.372 1.42 2.43 2.737 2.816l.028.007c2.475.678 12.447.678 12.447.678s9.942 0 12.446-.678a4.044 4.044 0 002.76-2.795l.006-.028c.421-2.264.662-4.87.662-7.53l-.001-.295.001-.307a43.3 43.3 0 00-.703-7.795zM12.885 20.868v-9.724l8.297 4.87-8.297 4.854z"/></g><defs><clipPath id="vclip0_20_48"><path transform="translate(.164)" d="M0 0h31.778v32H0z"/></clipPath></defs></svg></svg>